<svg width="22" height="24" viewBox="0 0 22 24" fill="none" xmlns="http://www.w3.org/2000/svg">
<path d="M21.4087 23.2111L19.5847 5.8405C19.5464 5.47686 19.2399 5.20073 18.8742 5.20073H15.4457V4.41906C15.4457 1.98248 13.4633 0 11.0267 0C8.58992 0 6.60744 1.98248 6.60744 4.41906V5.20073H3.17898C2.81332 5.20073 2.5068 5.47686 2.46853 5.8405L0.644442 23.2111C0.623385 23.4124 0.688754 23.6132 0.824068 23.7637C0.959566 23.9141 1.15256 23.9999 1.35489 23.9999H20.6981C20.9006 23.9999 21.0936 23.9141 21.2289 23.7637C21.3646 23.6132 21.4298 23.4124 21.4087 23.2111ZM8.03603 4.41906C8.03603 2.7702 9.37764 1.42859 11.0267 1.42859C12.6755 1.42859 14.0172 2.7702 14.0172 4.41906V5.20073H8.03603V4.41906ZM2.1481 22.5714L3.82223 6.62932H6.60744V8.20347C6.60744 8.59788 6.92733 8.91777 7.32174 8.91777C7.71614 8.91777 8.03603 8.59788 8.03603 8.20347V6.62932H14.0172V8.20347C14.0172 8.59788 14.337 8.91777 14.7314 8.91777C15.1259 8.91777 15.4457 8.59788 15.4457 8.20347V6.62932H18.231L19.9051 22.5714H2.1481Z" fill="#C7051A"/>
</svg>
