<svg width="24" height="20" viewBox="0 0 13 11" fill="none" xmlns="http://www.w3.org/2000/svg">
<path d="M12.3438 4.96879H1.74558L5.8038 1.10341C6.0163 0.901007 6.02453 0.564725 5.82212 0.352225C5.61998 0.139991 5.2837 0.131491 5.07094 0.333897L0.436312 4.74858C0.235766 4.9494 0.125 5.21608 0.125 5.50004C0.125 5.78373 0.235766 6.05068 0.445609 6.26026L5.0712 10.6659C5.174 10.7639 5.30575 10.8125 5.4375 10.8125C5.57775 10.8125 5.718 10.7573 5.82239 10.6476C6.0248 10.4351 6.01656 10.0991 5.80406 9.89666L1.72884 6.03129H12.3438C12.637 6.03129 12.875 5.79329 12.875 5.50004C12.875 5.20679 12.637 4.96879 12.3438 4.96879Z" fill="#C7051A"/>
</svg>
